<?xml version="1.0" standalone="no"?>
<!DOCTYPE svg PUBLIC "-//W3C//DTD SVG 20010904//EN"
 "http://www.w3.org/TR/2001/REC-SVG-20010904/DTD/svg10.dtd">
<svg version="1.0" xmlns="http://www.w3.org/2000/svg"
 width="1024.000000pt" height="1024.000000pt" viewBox="0 0 1024.000000 1024.000000"
 preserveAspectRatio="xMidYMid meet">

<g transform="translate(0.000000,1024.000000) scale(0.100000,-0.100000)"
fill="#000000" stroke="none">
<path d="M3300 7748 c41 -45 50 -53 50 -45 0 2 -21 23 -47 47 l-48 45 45 -47z"/>
<path d="M3215 6410 c0 -751 1 -1058 2 -682 2 375 2 989 0 1365 -1 375 -2 68
-2 -683z"/>
<path d="M6012 7467 l-272 -272 0 -1353 0 -1352 965 0 c531 0 965 2 965 5 0 2
-80 105 -178 227 -98 123 -187 235 -196 251 l-18 27 -489 0 -489 0 0 1370 c0
754 -3 1370 -8 1370 -4 0 -130 -123 -280 -273z"/>
<path d="M3500 7555 c52 -52 97 -95 100 -95 2 0 -38 43 -90 95 -52 52 -97 95
-100 95 -2 0 38 -43 90 -95z"/>
<path d="M3650 7405 c13 -14 26 -25 28 -25 3 0 -5 11 -18 25 -13 14 -26 25
-28 25 -3 0 5 -11 18 -25z"/>
<path d="M3710 7355 c13 -14 26 -25 28 -25 3 0 -5 11 -18 25 -13 14 -26 25
-28 25 -3 0 5 -11 18 -25z"/>
<path d="M3810 7255 c30 -30 57 -55 59 -55 3 0 -19 25 -49 55 -30 30 -57 55
-59 55 -3 0 19 -25 49 -55z"/>
<path d="M5574 7038 l-19 -23 23 19 c21 18 27 26 19 26 -2 0 -12 -10 -23 -22z"/>
<path d="M5633 7005 c0 -22 2 -30 4 -17 2 12 2 30 0 40 -3 9 -5 -1 -4 -23z"/>
<path d="M4130 6945 c35 -36 67 -65 69 -65 3 0 -24 29 -59 65 -35 36 -67 65
-69 65 -3 0 24 -29 59 -65z"/>
<path d="M5489 6963 c-13 -16 -12 -17 4 -4 9 7 17 15 17 17 0 8 -8 3 -21 -13z"/>
<path d="M5633 6925 c0 -22 2 -30 4 -17 2 12 2 30 0 40 -3 9 -5 -1 -4 -23z"/>
<path d="M5355 6828 l-110 -113 113 110 c104 102 117 115 109 115 -1 0 -52
-51 -112 -112z"/>
<path d="M5633 6845 c0 -22 2 -30 4 -17 2 12 2 30 0 40 -3 9 -5 -1 -4 -23z"/>
<path d="M4240 6847 c0 -1 35 -36 78 -77 l77 -75 -75 78 c-69 71 -80 82 -80
74z"/>
<path d="M5634 6650 c0 -85 2 -120 3 -77 2 42 2 112 0 155 -1 42 -3 7 -3 -78z"/>
<path d="M4540 6555 c47 -47 87 -85 90 -85 2 0 -33 38 -80 85 -47 47 -87 85
-90 85 -2 0 33 -38 80 -85z"/>
<path d="M5025 6508 l-110 -113 113 110 c104 102 117 115 109 115 -1 0 -52
-51 -112 -112z"/>
<path d="M3890 6365 c19 -19 36 -35 39 -35 3 0 -10 16 -29 35 -19 19 -36 35
-39 35 -3 0 10 -16 29 -35z"/>
<path d="M5633 6350 c0 -30 2 -43 4 -27 2 15 2 39 0 55 -2 15 -4 2 -4 -28z"/>
<path d="M4869 6353 l-34 -38 38 34 c20 19 37 36 37 38 0 8 -8 0 -41 -34z"/>
<path d="M4750 6356 c0 -2 8 -10 18 -17 15 -13 16 -12 3 4 -13 16 -21 21 -21
13z"/>
<path d="M4055 6200 c66 -66 122 -120 125 -120 2 0 -49 54 -115 120 -66 66
-122 120 -125 120 -2 0 49 -54 115 -120z"/>
<path d="M5530 6193 l-65 -68 68 65 c62 60 72 70 64 70 -1 0 -32 -30 -67 -67z"/>
<path d="M5409 6073 l-24 -28 28 24 c15 14 27 26 27 28 0 8 -8 1 -31 -24z"/>
<path d="M4300 5967 c0 -1 35 -36 78 -77 l77 -75 -75 78 c-69 71 -80 82 -80
74z"/>
<path d="M5209 5883 l-34 -38 38 34 c20 19 37 36 37 38 0 8 -8 0 -41 -34z"/>
<path d="M5100 5773 l-65 -68 68 65 c37 35 67 66 67 67 0 8 -10 -2 -70 -64z"/>
<path d="M4480 5786 c0 -2 8 -10 18 -17 15 -13 16 -12 3 4 -13 16 -21 21 -21
13z"/>
<path d="M4550 5726 c0 -2 8 -10 18 -17 15 -13 16 -12 3 4 -13 16 -21 21 -21
13z"/>
<path d="M4999 5673 l-24 -28 28 24 c25 23 32 31 24 31 -2 0 -14 -12 -28 -27z"/>
<path d="M4680 5595 c52 -52 97 -95 100 -95 2 0 -38 43 -90 95 -52 52 -97 95
-100 95 -2 0 38 -43 90 -95z"/>
<path d="M4819 5503 c-13 -16 -12 -17 4 -4 9 7 17 15 17 17 0 8 -8 3 -21 -13z"/>
<path d="M3420 4845 c80 -80 147 -145 150 -145 2 0 -60 65 -140 145 -80 80
-147 145 -150 145 -2 0 60 -65 140 -145z"/>
<path d="M3610 4655 c19 -19 36 -35 39 -35 3 0 -10 16 -29 35 -19 19 -36 35
-39 35 -3 0 10 -16 29 -35z"/>
<path d="M2787 3863 c-4 -3 -7 -125 -7 -270 l0 -264 68 3 67 3 0 175 1 175 -3
-172 -3 -173 -60 0 -60 0 0 260 0 260 57 0 c52 0 61 -3 97 -37 l40 -38 -34 42
c-34 40 -37 41 -96 42 -33 1 -64 -2 -67 -6z"/>
<path d="M3360 3845 c-13 -14 -21 -27 -18 -30 3 -3 13 5 21 19 11 16 29 26 49
29 l33 4 -31 1 c-21 2 -38 -6 -54 -23z"/>
<path d="M3508 3604 l3 -264 -60 0 -61 0 -2 182 -3 182 -33 -44 c-32 -43 -33
-44 -3 -10 l31 34 0 -177 0 -177 70 0 70 0 0 264 c0 146 -3 267 -7 269 -5 3
-7 -114 -5 -259z"/>
<path d="M4215 3864 c46 -7 123 -8 118 -1 -2 4 -34 6 -71 6 -37 -1 -58 -3 -47
-5z"/>
<path d="M4540 3600 l0 -270 250 0 250 0 0 55 0 55 -185 0 -185 0 0 215 0 215
-65 0 -65 0 0 -270z"/>
<path d="M5250 3600 l0 -270 255 0 255 0 0 55 0 55 -190 0 -190 0 0 55 0 55
150 0 150 0 0 55 0 55 -150 0 -150 0 0 50 0 50 190 0 190 0 0 55 0 55 -255 0
-255 0 0 -270z"/>
<path d="M5948 3838 c11 -18 47 -85 80 -148 34 -63 90 -169 125 -235 l65 -120
60 -3 c51 -2 61 0 66 15 3 10 66 131 140 268 l135 250 -66 3 c-55 2 -68 0 -77
-15 -11 -18 -68 -122 -146 -268 -23 -44 -46 -84 -50 -88 -4 -5 -38 49 -75 120
-38 70 -82 155 -99 188 l-32 60 -73 3 -73 3 20 -33z"/>
<path d="M6790 3600 l0 -270 250 0 250 0 0 55 0 55 -185 0 -185 0 0 215 0 215
-65 0 -65 0 0 -270z"/>
<path d="M4299 3813 l-24 -28 28 24 c25 23 32 31 24 31 -2 0 -14 -12 -28 -27z"/>
<path d="M4139 3803 c-13 -16 -12 -17 4 -4 9 7 17 15 17 17 0 8 -8 3 -21 -13z"/>
<path d="M3905 3760 c10 -11 20 -20 23 -20 3 0 -3 9 -13 20 -10 11 -20 20 -23
20 -3 0 3 -9 13 -20z"/>
<path d="M4104 3758 l-19 -23 23 19 c21 18 27 26 19 26 -2 0 -12 -10 -23 -22z"/>
<path d="M4249 3753 c-13 -16 -12 -17 4 -4 9 7 17 15 17 17 0 8 -8 3 -21 -13z"/>
<path d="M3016 3735 c4 -8 11 -15 16 -15 6 0 5 6 -2 15 -7 8 -14 15 -16 15 -2
0 -1 -7 2 -15z"/>
<path d="M3235 3698 l-40 -43 43 40 c39 36 47 45 39 45 -2 0 -21 -19 -42 -42z"/>
<path d="M4054 3698 l-29 -33 33 29 c17 17 32 31 32 33 0 8 -8 1 -36 -29z"/>
<path d="M4180 3668 c-61 -71 -88 -108 -50 -67 41 44 112 129 107 129 -2 0
-28 -28 -57 -62z"/>
<path d="M3810 3696 c0 -2 8 -10 18 -17 15 -13 16 -12 3 4 -13 16 -21 21 -21
13z"/>
<path d="M3960 3696 c0 -2 8 -10 18 -17 15 -13 16 -12 3 4 -13 16 -21 21 -21
13z"/>
<path d="M3075 3670 c10 -11 20 -20 23 -20 3 0 -3 9 -13 20 -10 11 -20 20 -23
20 -3 0 3 -9 13 -20z"/>
<path d="M3001 3588 c34 -43 64 -78 66 -78 6 0 -46 65 -92 115 -20 22 -9 5 26
-37z"/>
<path d="M3884 3603 c26 -35 50 -63 52 -63 8 0 -57 88 -79 107 -11 10 1 -10
27 -44z"/>
<path d="M3174 3628 l-19 -23 23 19 c21 18 27 26 19 26 -2 0 -12 -10 -23 -22z"/>
<path d="M3125 3610 c10 -11 20 -20 23 -20 3 0 -3 9 -13 20 -10 11 -20 20 -23
20 -3 0 3 -9 13 -20z"/>
<path d="M3269 3563 l-24 -28 28 24 c25 23 32 31 24 31 -2 0 -14 -12 -28 -27z"/>
<path d="M4082 3548 c-8 -8 -12 -47 -12 -110 l0 -98 -59 0 c-38 0 -61 4 -64
13 -3 7 -6 5 -6 -5 -1 -16 9 -18 69 -18 l70 0 0 103 c0 67 4 107 12 115 7 7
10 12 7 12 -3 0 -10 -5 -17 -12z"/>
<path d="M3195 3479 c-28 -28 -45 -50 -40 -48 11 4 101 99 93 99 -2 0 -26 -23
-53 -51z"/>
<path d="M3105 3460 c10 -11 20 -20 23 -20 3 0 -3 9 -13 20 -10 11 -20 20 -23
20 -3 0 3 -9 13 -20z"/>
</g>
</svg>
