<?xml version="1.0" standalone="no"?>
<!DOCTYPE svg PUBLIC "-//W3C//DTD SVG 20010904//EN"
 "http://www.w3.org/TR/2001/REC-SVG-20010904/DTD/svg10.dtd">
<svg version="1.0" xmlns="http://www.w3.org/2000/svg"
 width="1254.000000pt" height="1254.000000pt" viewBox="0 0 1254.000000 1254.000000"
 preserveAspectRatio="xMidYMid meet">

<g transform="translate(0.000000,1254.000000) scale(0.100000,-0.100000)"
fill="#000000" stroke="none">
<path d="M0 6270 l0 -6270 6270 0 6270 0 0 6270 0 6270 -6270 0 -6270 0 0
-6270z m4902 2056 l898 -901 975 980 975 980 -2 -1275 c-1 -1200 -4 -1273 -22
-738 -4 129 -11 152 -34 122 -14 -18 -14 -18 -8 -1 3 10 6 25 6 33 0 7 6 11
13 8 11 -4 14 12 15 73 1 43 3 85 4 93 0 8 0 38 -1 65 -2 46 -3 48 -14 27 -20
-35 -27 -16 -21 54 3 41 1 64 -6 64 -5 0 -10 9 -10 21 0 23 24 21 26 -2 0 -8
2 -27 3 -44 1 -23 3 -27 11 -15 12 19 13 180 0 200 -8 12 -10 12 -16 -3 -3 -9
-3 -24 0 -33 4 -10 1 -14 -6 -12 -16 6 -23 48 -9 48 6 0 11 14 11 30 0 17 7
41 15 54 12 17 15 46 14 102 -2 99 -2 106 1 467 1 164 -1 301 -5 305 -3 4 -11
-1 -17 -11 -7 -14 -13 -16 -24 -6 -7 6 -25 8 -39 5 -19 -5 -23 -3 -19 8 6 16
-29 38 -88 54 -32 9 -39 7 -59 -14 -12 -13 -26 -22 -32 -21 -6 1 -11 -2 -12
-8 -1 -17 -16 -36 -24 -31 -4 3 -34 -23 -67 -57 -32 -34 -53 -57 -45 -50 7 6
20 9 29 5 11 -4 14 -1 10 10 -8 20 67 96 75 76 4 -10 9 -9 21 6 8 10 20 15 27
10 8 -4 10 -3 5 4 -4 7 -2 12 3 12 6 0 11 -14 11 -31 0 -24 -4 -30 -15 -25 -9
3 -15 0 -15 -9 0 -9 -6 -12 -17 -8 -11 4 -14 3 -9 -5 4 -7 1 -12 -6 -12 -8 0
-22 -10 -32 -22 -16 -18 -16 -20 -2 -15 14 6 16 3 10 -16 -3 -12 -8 -23 -9
-25 -5 -6 -74 10 -73 17 2 18 -4 22 -17 11 -8 -7 -15 -9 -15 -4 0 4 -20 -11
-44 -35 -42 -42 -51 -71 -20 -71 9 0 14 -12 14 -36 l0 -35 -55 2 c-30 1 -55 6
-55 11 0 5 -4 6 -10 3 -6 -4 -10 -175 -10 -478 l-1 -472 -646 -650 -646 -649
-641 644 -641 644 -3 -1327 c-1 -730 -5 -1327 -8 -1327 -3 0 -139 127 -301
283 -163 155 -316 299 -340 320 l-43 39 0 1831 0 1831 93 -89 c50 -48 496
-494 989 -989z m2518 545 c0 -6 -4 -13 -10 -16 -5 -3 -10 1 -10 9 0 9 5 16 10
16 6 0 10 -4 10 -9z m-69 -138 c13 -16 12 -17 -3 -4 -10 7 -18 15 -18 17 0 8
8 3 21 -13z m-184 -132 c35 -36 43 -57 18 -47 -9 3 -15 0 -15 -10 0 -12 -5
-14 -17 -9 -10 5 -26 8 -35 9 -15 0 -18 10 -18 59 0 67 1 67 67 -2z m-48 -201
c0 -14 -4 -34 -9 -45 -6 -14 -9 -3 -9 40 -1 42 2 56 9 45 5 -8 9 -26 9 -40z
m-4 -316 l-13 -49 0 105 0 105 13 -56 c12 -47 12 -64 0 -105z m585 116 c0 -5
-4 -10 -10 -10 -5 0 -10 5 -10 10 0 6 5 10 10 10 6 0 10 -4 10 -10z m-104
-175 c-4 -12 0 -14 22 -10 15 3 21 2 15 -1 -7 -3 -13 -19 -13 -35 0 -28 -35
-77 -47 -65 -9 9 6 36 19 34 7 -2 14 7 16 20 2 14 -2 22 -11 22 -23 0 -39 -26
-36 -57 2 -15 -1 -29 -6 -30 -6 -2 -10 7 -10 20 -1 28 -30 25 -56 -6 -14 -18
-20 -20 -30 -9 -11 10 -10 12 4 12 9 0 17 3 17 8 0 4 14 16 30 27 31 21 39 49
18 59 -7 2 2 4 21 3 20 -1 36 4 39 11 2 6 6 12 9 12 3 0 3 -7 -1 -15z m-470
-147 c18 -25 16 -62 -6 -76 -20 -12 -20 -10 -19 75 1 66 3 79 8 51 4 -20 12
-43 17 -50z m518 -73 c-6 -16 -24 -21 -24 -7 0 11 11 22 21 22 5 0 6 -7 3 -15z
m-530 -156 c6 6 18 6 25 2 19 -12 5 -62 -19 -68 -11 -3 -21 -16 -23 -32 -2
-14 -4 8 -4 49 -1 41 1 67 4 57 3 -13 8 -15 17 -8z m583 -56 c-3 -10 -5 -4 -5
12 0 17 2 24 5 18 2 -7 2 -21 0 -30z m-317 -53 c0 -5 -4 -10 -10 -10 -5 0 -10
5 -10 10 0 6 5 10 10 10 6 0 10 -4 10 -10z m-283 -328 c-1 -53 -3 -7 -3 103 0
110 2 154 3 97 2 -57 2 -147 0 -200z m43 241 c0 -2 -7 -11 -15 -19 -13 -14
-15 -13 -15 10 0 18 4 24 15 20 8 -4 15 -8 15 -11z m-43 -515 c-2 -29 -3 -6
-3 52 0 58 1 81 3 53 2 -29 2 -77 0 -105z m650 -255 c-3 -10 -5 -4 -5 12 0 17
2 24 5 18 2 -7 2 -21 0 -30z m-4520 -2605 c72 -90 146 -180 165 -202 l34 -38
164 201 165 201 68 0 67 0 0 -370 0 -370 -60 0 -60 0 -2 268 c0 147 -1 273 -1
280 1 21 -17 1 -159 -171 -199 -241 -184 -226 -201 -202 -8 11 -61 76 -118
145 -57 69 -124 151 -149 182 -25 32 -48 57 -52 58 -5 0 -8 -126 -8 -280 l0
-280 -60 0 -60 0 0 370 0 370 68 0 69 0 130 -162z m1397 -8 l135 -171 133 170
133 171 73 0 c56 0 71 -3 66 -12 -5 -7 -84 -108 -176 -225 l-168 -211 0 -146
0 -146 -60 0 -60 0 -2 83 c-2 45 -3 110 -3 145 l-1 63 -169 216 c-94 119 -171
220 -173 225 -2 4 28 8 67 8 l70 0 135 -170z m1126 -145 c0 -293 1 -315 18
-316 9 -1 80 -5 157 -8 l140 -8 -132 -1 c-111 -2 -133 -4 -133 -17 0 -8 -15
-24 -32 -35 -18 -11 -26 -20 -18 -21 8 0 4 -5 -9 -10 -13 -5 -41 -8 -62 -7
l-39 3 2 50 1 50 7 -45 c4 -25 8 -40 8 -33 1 6 17 15 35 18 47 10 48 13 32 45
-17 33 -20 70 -5 70 6 0 10 21 10 46 0 37 -5 50 -25 66 -17 13 -25 29 -25 49
0 18 4 28 10 24 16 -10 40 21 40 50 0 15 -4 24 -10 20 -5 -3 -10 1 -10 9 0 9
6 16 13 16 8 0 7 4 -3 10 -10 7 -18 6 -25 -4 -13 -17 -35 -9 -35 12 0 15 2 15
10 2 8 -12 10 -9 10 13 0 15 5 27 11 27 20 0 37 26 44 68 8 49 -1 88 -18 74
-7 -6 -23 -12 -37 -14 l-25 -3 -5 -250 -6 -250 -2 308 -2 307 55 0 55 0 0
-315z m1445 305 c-104 -3 -183 -7 -175 -8 10 -1 11 -5 3 -13 -13 -13 -89 -8
-85 6 1 6 -38 12 -95 16 -54 3 46 5 222 5 271 0 291 -1 130 -6z m202 -12 c-3
-8 -6 -5 -6 6 -1 11 2 17 5 13 3 -3 4 -12 1 -19z m-94 -5 c-7 -2 -19 -2 -25 0
-7 3 -2 5 12 5 14 0 19 -2 13 -5z m-405 -70 l-38 -4 -2 -62 -2 -62 -3 54 c-5
73 -1 81 44 79 l38 -1 -37 -4z m-61 -50 c-3 -10 -5 -2 -5 17 0 19 2 27 5 18 2
-10 2 -26 0 -35z m-70 -115 c-3 -8 -6 -5 -6 6 -1 11 2 17 5 13 3 -3 4 -12 1
-19z m146 -145 c-7 -2 -21 -2 -30 0 -10 3 -4 5 12 5 17 0 24 -2 18 -5z m-56
-105 c-2 -18 -4 -4 -4 32 0 36 2 50 4 33 2 -18 2 -48 0 -65z m-597 -143 c0
-18 -5 -25 -20 -25 -23 0 -46 36 -27 43 31 13 47 7 47 -18z"/>
<path d="M7665 9290 c-3 -5 -2 -10 4 -10 5 0 13 5 16 10 3 6 2 10 -4 10 -5 0
-13 -4 -16 -10z"/>
<path d="M7711 9234 c0 -11 3 -14 6 -6 3 7 2 16 -1 19 -3 4 -6 -2 -5 -13z"/>
<path d="M7500 9116 c-36 -39 -51 -59 -34 -43 17 15 34 24 39 20 4 -5 5 -3 2
3 -3 6 7 24 24 40 19 18 28 23 24 11 -5 -11 -2 -17 6 -18 8 -1 19 -2 24 -4 6
-1 16 -3 23 -3 6 -1 12 -9 12 -17 0 -21 16 -19 40 5 23 23 24 29 6 52 -9 12
-25 16 -53 15 -23 -1 -39 1 -37 5 3 5 2 7 -3 7 -4 -1 -37 -33 -73 -73z"/>
<path d="M5650 4200 c0 -16 2 -30 4 -30 2 0 9 14 15 30 8 24 7 30 -5 30 -9 0
-14 -10 -14 -30z"/>
</g>
</svg>
